# xmcd
#
# Track frame offsets:
#	150
#	14997
#	35997
#	52811
#	71931
#	85010
#	98733
#	117321
#	130822
#	145467
#	167678
#	181930
#
# Disc length: 2610 seconds
#
# Revision: 0
# Processed by: cddbd v1.4PL0 Copyright (c) Steve Scherf et al.
# Submitted via: dBpowerAMP V4.0
#
DISCID=ad0a300c
DTITLE=Mary and Mars - mary and mars
DYEAR=2002
DGENRE=Bluegrass
TTITLE0=Walkin' Through The Dark
TTITLE1=Cold Dark Ground
TTITLE2=One Less Fiesta
TTITLE3=Cold Rain and Snow
TTITLE4=Shouldn't Get Used To You
TTITLE5=I've Been Burned
TTITLE6=Sittin' Alone In The Moonlight
TTITLE7=Glad It's Night
TTITLE8=Ireland's Green Shores
TTITLE9=Somehow Someday
TTITLE10=Will You Fall In Love With Me
TTITLE11=Walk About
EXTD=
EXTT0=
EXTT1=
EXTT2=
EXTT3=
EXTT4=
EXTT5=
EXTT6=
EXTT7=
EXTT8=
EXTT9=
EXTT10=
EXTT11=
PLAYORDER=
